<?xml version="1.0" standalone="no"?>
<!DOCTYPE svg PUBLIC "-//W3C//DTD SVG 20010904//EN"
 "http://www.w3.org/TR/2001/REC-SVG-20010904/DTD/svg10.dtd">
<svg version="1.0" xmlns="http://www.w3.org/2000/svg"
 width="64.000000pt" height="64.000000pt" viewBox="0 0 64.000000 64.000000"
 preserveAspectRatio="xMidYMid meet">

<g transform="translate(0.000000,64.000000) scale(0.100000,-0.100000)"
fill="#000000" stroke="none">
<path d="M73 633 c-23 -9 -14 -40 18 -67 17 -14 36 -26 42 -27 7 0 2 -4 -10
-9 -23 -9 -23 -9 -23 -259 0 -237 1 -251 19 -261 12 -6 96 -10 205 -10 154 0
187 3 200 16 14 13 16 50 16 254 0 235 0 239 -22 254 -12 9 -17 16 -11 16 20
0 73 51 73 70 0 30 -29 32 -62 5 -34 -29 -24 -27 -193 -30 -139 -3 -182 4
-210 35 -19 21 -22 22 -42 13z m27 -22 c0 -16 85 -51 123 -51 27 0 37 -4 37
-16 0 -13 -8 -15 -52 -9 -59 8 -82 18 -115 48 -27 24 -29 37 -8 37 8 0 15 -4
15 -9z m470 1 c0 -31 -105 -82 -167 -82 -42 0 -19 25 29 31 50 8 78 20 98 43
13 17 40 22 40 8z m-212 -73 c-5 -70 -59 -80 -82 -17 -15 41 -2 58 44 58 l41
0 -3 -41z m-82 -54 c13 -14 34 -25 48 -25 14 0 33 10 44 25 18 22 27 25 86 25
78 0 90 -19 14 -22 l-53 -1 54 -6 c71 -8 81 -30 14 -33 l-48 -2 48 -3 c58 -5
62 -22 5 -25 l-43 -1 42 -4 c38 -4 41 -6 39 -31 -3 -21 -10 -28 -32 -33 l-29
-7 33 -1 c36 -1 35 -20 -1 -22 -17 -1 -15 -3 8 -9 l30 -7 -25 -11 c-24 -10
-24 -11 -2 -11 21 -1 22 -4 22 -115 0 -63 -3 -121 -6 -130 -5 -14 -33 -16
-205 -16 l-199 0 0 245 0 245 66 0 c58 0 70 -3 90 -25z"/>
<path d="M310 525 c0 -8 5 -15 10 -15 6 0 10 7 10 15 0 8 -4 15 -10 15 -5 0
-10 -7 -10 -15z"/>
<path d="M292 427 c-13 -6 -33 -29 -45 -50 -20 -36 -20 -39 -4 -66 21 -35 21
-41 3 -41 -8 0 -23 -11 -34 -25 -11 -14 -26 -25 -33 -25 -7 0 -10 -3 -7 -6 10
-10 287 -13 293 -3 4 5 1 9 -5 9 -7 0 -21 11 -32 25 -11 14 -26 25 -34 25 -18
0 -18 14 1 30 19 16 19 39 0 77 -26 52 -65 71 -103 50z m57 -23 l23 -17 -42
-14 c-45 -15 -65 -8 -54 20 5 13 15 19 44 26 3 0 16 -6 29 -15z m40 -60 c8 -7
-23 -56 -44 -70 -29 -19 -61 -7 -85 33 -11 19 -20 36 -20 38 0 12 137 11 149
-1z m9 -97 c30 -19 6 -27 -85 -27 -93 0 -96 1 -79 19 14 15 30 18 84 17 37 -1
73 -5 80 -9z"/>
<path d="M473 373 c9 -2 23 -2 30 0 6 3 -1 5 -18 5 -16 0 -22 -2 -12 -5z"/>
<path d="M147 164 c-14 -15 -6 -46 13 -51 11 -3 20 -12 20 -20 0 -12 -3 -13
-14 -4 -10 8 -16 9 -21 1 -8 -13 20 -24 40 -16 21 8 19 33 -5 46 -27 14 -26
33 1 25 15 -5 20 -3 17 6 -5 15 -40 24 -51 13z"/>
<path d="M210 160 c0 -5 7 -10 15 -10 11 0 15 -12 15 -47 0 -25 3 -43 7 -39 4
4 6 22 5 41 -2 18 1 36 7 40 21 12 11 25 -19 25 -16 0 -30 -4 -30 -10z"/>
<path d="M301 156 c-7 -8 -11 -33 -8 -58 3 -35 5 -39 11 -20 9 25 26 30 26 7
0 -8 5 -15 10 -15 14 0 12 74 -2 88 -16 16 -23 15 -37 -2z m29 -26 c0 -11 -4
-20 -10 -20 -5 0 -10 9 -10 20 0 11 5 20 10 20 6 0 10 -9 10 -20z"/>
<path d="M379 165 c-3 -26 0 -97 5 -102 3 -3 6 6 6 20 0 19 5 27 18 27 16 1
16 1 0 14 -22 16 -23 26 -3 26 8 0 15 5 15 10 0 10 -39 15 -41 5z"/>
<path d="M450 114 c0 -34 4 -53 10 -49 6 3 10 15 10 25 0 10 6 21 13 24 10 5
10 7 0 12 -18 8 -16 24 2 24 8 0 15 5 15 10 0 6 -11 10 -25 10 -24 0 -25 -3
-25 -56z"/>
</g>
</svg>
